<svg width="32" height="32" viewBox="0 0 32 32" fill="none" >
<path d="M12 21.3333H6.66667C5.95942 21.3333 5.28115 21.0524 4.78105 20.5523C4.28095 20.0522 4 19.3739 4 18.6666V7.99998C4 7.29274 4.28095 6.61446 4.78105 6.11436C5.28115 5.61426 5.95942 5.33331 6.66667 5.33331H25.3333C26.0406 5.33331 26.7189 5.61426 27.219 6.11436C27.719 6.61446 28 7.29274 28 7.99998V18.6666C28 19.3739 27.719 20.0522 27.219 20.5523C26.7189 21.0524 26.0406 21.3333 25.3333 21.3333H18.6667L12 28V21.3333Z" stroke="currentColor" strokeWidth="2" strokeLinecap="round" strokeLinejoin="round"/>
</svg>
