<svg width="26" height="27" viewBox="0 0 26 27" fill="none" xmlns="http://www.w3.org/2000/svg">
<path d="M19.6667 6.66668H22.3333C23.0406 6.66668 23.7189 6.94763 24.219 7.44773C24.719 7.94782 25 8.6261 25 9.33334V17.3333C25 18.0406 24.719 18.7189 24.219 19.219C23.7189 19.7191 23.0406 20 22.3333 20H19.6667V25.3333L14.3333 20H9C8.64977 20.0004 8.30292 19.9315 7.97938 19.7974C7.65583 19.6634 7.36197 19.4667 7.11467 19.2187M7.11467 19.2187L11.6667 14.6667H17C17.7072 14.6667 18.3855 14.3857 18.8856 13.8856C19.3857 13.3855 19.6667 12.7073 19.6667 12V4.00001C19.6667 3.29277 19.3857 2.61449 18.8856 2.11439C18.3855 1.61429 17.7072 1.33334 17 1.33334H3.66667C2.95942 1.33334 2.28115 1.61429 1.78105 2.11439C1.28095 2.61449 1 3.29277 1 4.00001V12C1 12.7073 1.28095 13.3855 1.78105 13.8856C2.28115 14.3857 2.95942 14.6667 3.66667 14.6667H6.33333V20L7.11467 19.2187Z" stroke="#787491" stroke-width="2" stroke-linecap="round" stroke-linejoin="round"/>
</svg>
