<svg width="16" height="16" viewBox="0 0 16 16" fill="none" xmlns="http://www.w3.org/2000/svg">
<path d="M9.21333 2.00001C9.21333 1.86638 9.13353 1.74567 9.01057 1.69332C8.88762 1.64097 8.74529 1.66711 8.64896 1.75974L7.46366 2.89945C5.69884 4.59639 4.20763 6.55653 3.04307 8.7101C3.01565 8.75852 3 8.81449 3 8.87411C3 9.0582 3.14924 9.20744 3.33333 9.20744H6.20667V14C6.20667 14.132 6.28456 14.2516 6.4053 14.3049C6.52604 14.3583 6.66689 14.3353 6.76447 14.2464L7.29481 13.7633C9.15129 12.0722 10.7268 10.0964 11.9622 7.91002L12.2902 7.32945C12.3485 7.22625 12.3476 7.09985 12.2879 6.99747C12.2282 6.89509 12.1185 6.83214 12 6.83214H9.21333V2.00001Z" fill="white"/>
</svg>
