<svg width="14" height="12" viewBox="0 0 14 12" fill="none" >
<path fillRule="evenodd" clipRule="evenodd" d="M1.53762 1.1376C2.13771 0.53769 2.9515 0.20068 3.80002 0.20068C4.64855 0.20068 5.46234 0.53769 6.06242 1.1376L7.00002 2.0744L7.93762 1.1376C8.23281 0.831965 8.58592 0.588181 8.97633 0.420473C9.36674 0.252764 9.78665 0.164488 10.2115 0.160796C10.6364 0.157104 11.0578 0.238069 11.4511 0.398968C11.8443 0.559867 12.2016 0.797476 12.5021 1.09793C12.8025 1.39839 13.0402 1.75568 13.2011 2.14894C13.362 2.54221 13.4429 2.96359 13.4392 3.38848C13.4355 3.81337 13.3473 4.23328 13.1795 4.62369C13.0118 5.0141 12.7681 5.36721 12.4624 5.6624L7.00002 11.1256L1.53762 5.6624C0.937717 5.06231 0.600708 4.24852 0.600708 3.4C0.600708 2.55147 0.937717 1.73769 1.53762 1.1376Z" fill="currentColor"/>
</svg>
