<svg width="48" height="48" viewBox="0 0 48 48" fill="none" >
<path d="M28.0253 3.26728L34.834 10.0762C33.5204 10.4884 32.3159 11.2138 31.3163 12.2128L31.316 12.2132L24.3017 19.228L17.2618 12.1869L17.2615 12.1865C16.1541 11.0796 14.7951 10.3087 13.315 9.92749L19.9752 3.26724L19.9753 3.2672C22.198 1.04433 25.8019 1.04419 28.0252 3.26722C28.0252 3.26724 28.0252 3.26726 28.0253 3.26728ZM31.3164 35.7871C32.316 36.7862 33.5205 37.5116 34.8342 37.9237L28.0252 44.7329C28.0252 44.7329 28.0251 44.7329 28.0251 44.7329C25.8021 46.9557 22.198 46.9556 19.9753 44.7329L18.844 45.8643L19.9753 44.7329L13.3148 38.0725C14.795 37.6913 16.1541 36.9203 17.2616 35.8134L17.2619 35.8131L24.3021 28.7726L31.3161 35.7868L31.3164 35.7871ZM35.0769 32.0267L35.0765 32.0262L27.8779 24.828C27.8777 24.8278 27.8775 24.8276 27.8773 24.8274C27.5469 24.4968 27.1767 24.2229 26.7804 24.0056C27.1735 23.7847 27.5432 23.5072 27.8773 23.1731L27.8773 23.1731L35.0766 15.9737L35.0769 15.9733C35.6946 15.3552 36.559 14.997 37.4335 14.997H39.7549L44.733 19.9751C44.733 19.9751 44.7331 19.9751 44.7331 19.9751C46.9558 22.198 46.9558 25.8019 44.7331 28.0249C44.733 28.0249 44.733 28.0249 44.733 28.0249L39.7549 33.003H37.4335C36.559 33.003 35.6946 32.6448 35.0769 32.0267ZM20.728 23.1742C21.0619 23.5078 21.4313 23.7849 21.8241 24.0056C21.4278 24.2228 21.0578 24.4964 20.7275 24.8264L20.727 24.8268L13.5012 32.0526L13.5008 32.053C12.8833 32.671 12.019 33.0291 11.1443 33.0291H8.27146L3.26724 28.0249C1.04425 25.8019 1.04425 22.1981 3.26724 19.9751L8.27167 14.9706H11.1443C12.019 14.9706 12.8832 15.3288 13.5007 15.9469L13.5012 15.9474L20.7277 23.1738L20.728 23.1742Z" stroke="currentColor" strokeWidth="3.2" strokeLinejoin="round"/>
</svg>
