<svg width="129" height="48" viewBox="0 0 129 48" fill="none" xmlns="http://www.w3.org/2000/svg">
<circle opacity="0.08" cx="9.6" cy="9.59999" r="3.2" fill="url(#paint0_linear_101_644)"/>
<circle cx="19.2001" cy="9.59999" r="3.2" fill="url(#paint1_linear_101_644)"/>
<circle cx="28.8001" cy="9.59999" r="3.2" fill="url(#paint2_linear_101_644)"/>
<circle opacity="0.08" cx="38.4001" cy="9.59999" r="3.2" fill="url(#paint3_linear_101_644)"/>
<circle cx="28.8001" cy="19.2" r="3.2" fill="url(#paint4_linear_101_644)"/>
<circle cx="38.4001" cy="19.2" r="3.2" fill="url(#paint5_linear_101_644)"/>
<circle opacity="0.08" cx="19.2001" cy="19.2" r="3.2" fill="url(#paint6_linear_101_644)"/>
<circle cx="9.60007" cy="19.2" r="3.2" fill="url(#paint7_linear_101_644)"/>
<circle cx="9.60007" cy="28.8" r="3.2" fill="url(#paint8_linear_101_644)"/>
<circle opacity="0.08" cx="9.60007" cy="38.4" r="3.2" fill="url(#paint9_linear_101_644)"/>
<circle cx="19.2001" cy="28.8" r="3.2" fill="url(#paint10_linear_101_644)"/>
<circle cx="19.2001" cy="38.4" r="3.2" fill="url(#paint11_linear_101_644)"/>
<circle opacity="0.08" cx="28.8001" cy="28.8" r="3.2" fill="url(#paint12_linear_101_644)"/>
<circle cx="28.8001" cy="38.4" r="3.2" fill="url(#paint13_linear_101_644)"/>
<circle cx="38.4001" cy="28.8" r="3.2" fill="url(#paint14_linear_101_644)"/>
<circle opacity="0.08" cx="38.4001" cy="38.4" r="3.2" fill="url(#paint15_linear_101_644)"/>
<path d="M58.3893 29.94H61.9733V24.4787H58.6453V21.9187H64.6613V29.94H67.7333V32.5H58.3893V29.94ZM65.3227 18.7827C65.3227 19.0671 65.2658 19.3373 65.152 19.5933C65.0525 19.8351 64.9102 20.0484 64.7253 20.2333C64.5405 20.404 64.32 20.5462 64.064 20.66C63.8222 20.7596 63.5662 20.8093 63.296 20.8093C63.0116 20.8093 62.7485 20.7596 62.5067 20.66C62.2649 20.5462 62.0516 20.404 61.8667 20.2333C61.6818 20.0484 61.5325 19.8351 61.4187 19.5933C61.3191 19.3373 61.2693 19.0671 61.2693 18.7827C61.2693 18.4982 61.3191 18.2351 61.4187 17.9933C61.5325 17.7373 61.6818 17.524 61.8667 17.3533C62.0516 17.1684 62.2649 17.0262 62.5067 16.9267C62.7485 16.8129 63.0116 16.756 63.296 16.756C63.5662 16.756 63.8222 16.8129 64.064 16.9267C64.32 17.0262 64.5405 17.1684 64.7253 17.3533C64.9102 17.524 65.0525 17.7373 65.152 17.9933C65.2658 18.2351 65.3227 18.4982 65.3227 18.7827ZM73.9478 32.5H71.2598V21.9187H73.9478V23.4973H74.3318C74.5736 22.9 74.9647 22.4378 75.5052 22.1107C76.0456 21.7836 76.6785 21.62 77.4038 21.62C77.9158 21.62 78.3923 21.7053 78.8332 21.876C79.2883 22.0324 79.6865 22.2813 80.0278 22.6227C80.3692 22.964 80.6323 23.3978 80.8172 23.924C81.0163 24.4502 81.1158 25.076 81.1158 25.8013V32.5H78.4278V26.484C78.4278 25.7302 78.243 25.14 77.8732 24.7133C77.5176 24.2724 76.9985 24.052 76.3158 24.052C75.5194 24.052 74.9221 24.3222 74.5238 24.8627C74.1398 25.3889 73.9478 26.1 73.9478 26.996V32.5ZM86.4557 36.7667H83.7677V21.9187H86.4557V23.4547H86.8397C87.1241 22.8716 87.5366 22.4236 88.077 22.1107C88.6175 21.7836 89.3072 21.62 90.1463 21.62C90.7721 21.62 91.3623 21.7409 91.917 21.9827C92.4859 22.2244 92.9766 22.58 93.389 23.0493C93.8157 23.5044 94.1499 24.0662 94.3917 24.7347C94.6477 25.4031 94.7757 26.164 94.7757 27.0173V27.4013C94.7757 28.2689 94.6548 29.0369 94.413 29.7053C94.1712 30.3738 93.8441 30.9427 93.4317 31.412C93.0192 31.8671 92.5286 32.2156 91.9597 32.4573C91.405 32.6849 90.8006 32.7987 90.1463 32.7987C89.6628 32.7987 89.2432 32.7489 88.8877 32.6493C88.5321 32.5498 88.2192 32.4147 87.949 32.244C87.693 32.0733 87.4726 31.8813 87.2877 31.668C87.117 31.4404 86.9677 31.2058 86.8397 30.964H86.4557V36.7667ZM89.2717 30.2387C90.1108 30.2387 90.7863 29.9827 91.2983 29.4707C91.8246 28.9444 92.0877 28.2333 92.0877 27.3373V27.0813C92.0877 26.1853 91.8246 25.4813 91.2983 24.9693C90.7863 24.4431 90.1108 24.18 89.2717 24.18C88.4326 24.18 87.7499 24.4502 87.2237 24.9907C86.7117 25.5169 86.4557 26.2138 86.4557 27.0813V27.3373C86.4557 28.2049 86.7117 28.9089 87.2237 29.4493C87.7499 29.9756 88.4326 30.2387 89.2717 30.2387ZM104.553 21.9187H107.241V32.5H104.553V30.964H104.169C103.7 32.1871 102.69 32.7987 101.14 32.7987C100.613 32.7987 100.123 32.7133 99.6675 32.5427C99.2124 32.372 98.8142 32.1089 98.4728 31.7533C98.1315 31.3978 97.8613 30.9569 97.6622 30.4307C97.4773 29.8902 97.3848 29.2573 97.3848 28.532V21.9187H100.073V27.9773C100.073 28.7311 100.251 29.3213 100.606 29.748C100.962 30.1604 101.495 30.3667 102.206 30.3667C103.017 30.3667 103.607 30.1107 103.977 29.5987C104.361 29.0724 104.553 28.3613 104.553 27.4653V21.9187ZM110.149 21.9187H113.285V17.5667H115.973V21.9187H119.791V24.4787H115.973V29.3C115.973 29.7267 116.165 29.94 116.549 29.94H119.407V32.5H114.927C114.444 32.5 114.046 32.3436 113.733 32.0307C113.434 31.7178 113.285 31.3196 113.285 30.836V24.4787H110.149V21.9187Z" fill="white"/>
<defs>
<linearGradient id="paint0_linear_101_644" x1="6.4" y1="6.39999" x2="12.8" y2="12.8" gradientUnits="userSpaceOnUse">
<stop stop-color="#00D9C0"/>
<stop offset="0.354167" stop-color="#00CBCB"/>
<stop offset="0.697917" stop-color="#00BCD8"/>
<stop offset="1" stop-color="#00A8E8"/>
</linearGradient>
<linearGradient id="paint1_linear_101_644" x1="16.0001" y1="6.39999" x2="22.4001" y2="12.8" gradientUnits="userSpaceOnUse">
<stop stop-color="#00D9C0"/>
<stop offset="0.354167" stop-color="#00CBCB"/>
<stop offset="0.697917" stop-color="#00BCD8"/>
<stop offset="1" stop-color="#00A8E8"/>
</linearGradient>
<linearGradient id="paint2_linear_101_644" x1="25.6001" y1="6.39999" x2="32.0001" y2="12.8" gradientUnits="userSpaceOnUse">
<stop stop-color="#00D9C0"/>
<stop offset="0.354167" stop-color="#00CBCB"/>
<stop offset="0.697917" stop-color="#00BCD8"/>
<stop offset="1" stop-color="#00A8E8"/>
</linearGradient>
<linearGradient id="paint3_linear_101_644" x1="35.2001" y1="6.39999" x2="41.6001" y2="12.8" gradientUnits="userSpaceOnUse">
<stop stop-color="#00D9C0"/>
<stop offset="0.354167" stop-color="#00CBCB"/>
<stop offset="0.697917" stop-color="#00BCD8"/>
<stop offset="1" stop-color="#00A8E8"/>
</linearGradient>
<linearGradient id="paint4_linear_101_644" x1="25.6001" y1="16" x2="32.0001" y2="22.4" gradientUnits="userSpaceOnUse">
<stop stop-color="#00D9C0"/>
<stop offset="0.354167" stop-color="#00CBCB"/>
<stop offset="0.697917" stop-color="#00BCD8"/>
<stop offset="1" stop-color="#00A8E8"/>
</linearGradient>
<linearGradient id="paint5_linear_101_644" x1="35.2001" y1="16" x2="41.6001" y2="22.4" gradientUnits="userSpaceOnUse">
<stop stop-color="#00D9C0"/>
<stop offset="0.354167" stop-color="#00CBCB"/>
<stop offset="0.697917" stop-color="#00BCD8"/>
<stop offset="1" stop-color="#00A8E8"/>
</linearGradient>
<linearGradient id="paint6_linear_101_644" x1="16.0001" y1="16" x2="22.4001" y2="22.4" gradientUnits="userSpaceOnUse">
<stop stop-color="#00D9C0"/>
<stop offset="0.354167" stop-color="#00CBCB"/>
<stop offset="0.697917" stop-color="#00BCD8"/>
<stop offset="1" stop-color="#00A8E8"/>
</linearGradient>
<linearGradient id="paint7_linear_101_644" x1="6.40007" y1="16" x2="12.8001" y2="22.4" gradientUnits="userSpaceOnUse">
<stop stop-color="#00D9C0"/>
<stop offset="0.354167" stop-color="#00CBCB"/>
<stop offset="0.697917" stop-color="#00BCD8"/>
<stop offset="1" stop-color="#00A8E8"/>
</linearGradient>
<linearGradient id="paint8_linear_101_644" x1="6.40007" y1="25.6" x2="12.8001" y2="32" gradientUnits="userSpaceOnUse">
<stop stop-color="#00D9C0"/>
<stop offset="0.354167" stop-color="#00CBCB"/>
<stop offset="0.697917" stop-color="#00BCD8"/>
<stop offset="1" stop-color="#00A8E8"/>
</linearGradient>
<linearGradient id="paint9_linear_101_644" x1="6.40007" y1="35.2" x2="12.8001" y2="41.6" gradientUnits="userSpaceOnUse">
<stop stop-color="#00D9C0"/>
<stop offset="0.354167" stop-color="#00CBCB"/>
<stop offset="0.697917" stop-color="#00BCD8"/>
<stop offset="1" stop-color="#00A8E8"/>
</linearGradient>
<linearGradient id="paint10_linear_101_644" x1="16.0001" y1="25.6" x2="22.4001" y2="32" gradientUnits="userSpaceOnUse">
<stop stop-color="#00D9C0"/>
<stop offset="0.354167" stop-color="#00CBCB"/>
<stop offset="0.697917" stop-color="#00BCD8"/>
<stop offset="1" stop-color="#00A8E8"/>
</linearGradient>
<linearGradient id="paint11_linear_101_644" x1="16.0001" y1="35.2" x2="22.4001" y2="41.6" gradientUnits="userSpaceOnUse">
<stop stop-color="#00D9C0"/>
<stop offset="0.354167" stop-color="#00CBCB"/>
<stop offset="0.697917" stop-color="#00BCD8"/>
<stop offset="1" stop-color="#00A8E8"/>
</linearGradient>
<linearGradient id="paint12_linear_101_644" x1="25.6001" y1="25.6" x2="32.0001" y2="32" gradientUnits="userSpaceOnUse">
<stop stop-color="#00D9C0"/>
<stop offset="0.354167" stop-color="#00CBCB"/>
<stop offset="0.697917" stop-color="#00BCD8"/>
<stop offset="1" stop-color="#00A8E8"/>
</linearGradient>
<linearGradient id="paint13_linear_101_644" x1="25.6001" y1="35.2" x2="32.0001" y2="41.6" gradientUnits="userSpaceOnUse">
<stop stop-color="#00D9C0"/>
<stop offset="0.354167" stop-color="#00CBCB"/>
<stop offset="0.697917" stop-color="#00BCD8"/>
<stop offset="1" stop-color="#00A8E8"/>
</linearGradient>
<linearGradient id="paint14_linear_101_644" x1="35.2001" y1="25.6" x2="41.6001" y2="32" gradientUnits="userSpaceOnUse">
<stop stop-color="#00D9C0"/>
<stop offset="0.354167" stop-color="#00CBCB"/>
<stop offset="0.697917" stop-color="#00BCD8"/>
<stop offset="1" stop-color="#00A8E8"/>
</linearGradient>
<linearGradient id="paint15_linear_101_644" x1="35.2001" y1="35.2" x2="41.6001" y2="41.6" gradientUnits="userSpaceOnUse">
<stop stop-color="#00D9C0"/>
<stop offset="0.354167" stop-color="#00CBCB"/>
<stop offset="0.697917" stop-color="#00BCD8"/>
<stop offset="1" stop-color="#00A8E8"/>
</linearGradient>
</defs>
</svg>
