<svg width="137" height="24" viewBox="0 0 137 24" fill="none">
<path d="M105.813 16.6185C106.868 16.6185 107.674 17.4541 107.674 18.5063C107.674 19.5894 106.868 20.394 105.813 20.394C104.727 20.394 103.921 19.5894 103.921 18.5063C103.89 17.4541 104.727 16.6185 105.813 16.6185Z" fill="url(#paint0_linear_101_675)"/>
<path d="M125.574 20.1463H122.844V14.2973C122.844 13.0904 122.13 12.3477 121.044 12.3477C119.959 12.3477 119.183 13.1213 119.183 14.2354V20.1153H116.453V14.2973C116.453 13.0904 115.74 12.3477 114.654 12.3477C113.537 12.3477 112.793 13.0904 112.793 14.2973V20.1153H110.063V10.1195H112.576V11.0169C113.258 10.3052 114.251 9.90285 115.43 9.90285C116.764 9.90285 117.756 10.398 118.408 11.3264C119.214 10.4289 120.362 9.90285 121.758 9.90285C124.116 9.90285 125.543 11.5121 125.543 13.9259V20.1463H125.574ZM129.389 16.0613C129.699 17.3301 130.754 18.0419 132.212 18.0419C133.205 18.0419 134.135 17.7015 135.004 17.0206L136.152 18.8774C134.942 19.8677 133.608 20.3629 132.119 20.3629C129.017 20.4248 126.566 18.0109 126.628 15.1329C126.566 12.2239 128.986 9.84096 131.871 9.90285C134.663 9.90285 136.586 11.9453 136.586 14.5449C136.586 15.04 136.524 15.5352 136.4 16.0303H129.389V16.0613ZM133.949 14.1116C133.918 12.8737 132.988 12.1001 131.778 12.1001C130.63 12.1001 129.699 12.9047 129.389 14.1116H133.949Z" fill="url(#paint1_linear_101_675)"/>
<path d="M35.4567 17.1443C33.1921 17.1443 31.3929 15.7208 30.7104 13.7092C30.4312 14.7305 29.8729 15.6589 29.0663 16.4016L28.57 16.8967C30.09 18.9702 32.5717 20.3009 35.4256 20.3009C38.3416 20.3009 40.7303 18.9083 42.1882 16.5873L39.7686 14.7305C38.5898 16.3397 37.1628 17.1443 35.4567 17.1443Z" fill="currentColor"/>
<path d="M45.0116 18.1039C43.3986 16.4947 42.561 14.545 42.561 12.2549C42.561 9.96488 43.3675 8.04618 45.0116 6.40599C46.6247 4.79676 48.5791 3.96119 50.8746 3.96119C53.1702 3.96119 55.0935 4.76581 56.7376 6.40599C58.3507 8.01523 59.1883 9.96488 59.1883 12.2549C59.1883 14.545 58.3817 16.4947 56.7376 18.1039C55.1245 19.7131 53.1702 20.5487 50.8746 20.5487C48.5791 20.5487 46.6247 19.7441 45.0116 18.1039ZM47.4313 8.81985C46.4696 9.7792 46.0043 10.9242 46.0043 12.2549C46.0043 13.6166 46.4696 14.7616 47.4313 15.721C48.3929 16.6803 49.5407 17.1445 50.8746 17.1445C52.2085 17.1445 53.3873 16.6803 54.318 15.721C55.2796 14.7616 55.7449 13.6166 55.7449 12.2549C55.7449 10.8933 55.2796 9.74825 54.318 8.81985C53.3563 7.86049 52.2085 7.39629 50.8746 7.39629C49.5407 7.39629 48.3619 7.86049 47.4313 8.81985ZM68.6807 20.3011C66.3852 20.3011 64.4309 19.4965 62.7867 17.8563C61.1736 16.2471 60.3361 14.2974 60.3361 12.0074C60.3361 9.7173 61.1426 7.76765 62.7867 6.15842C64.3998 4.51824 66.3852 3.71362 68.6807 3.71362C70.7281 3.68267 72.3412 4.17782 73.5511 5.16812V0H76.9634V20.0845H73.5511V18.8466C72.5894 19.806 70.9763 20.3011 68.6807 20.3011ZM68.6807 7.14872C67.3158 7.14872 66.168 7.61292 65.2064 8.57227C64.2447 9.53162 63.7794 10.6767 63.7794 12.0074C63.7794 13.3381 64.2447 14.5141 65.2064 15.4425C66.168 16.4018 67.3158 16.866 68.6807 16.866C70.0457 16.866 71.1935 16.4018 72.1241 15.4425C73.0857 14.4831 73.5511 13.3381 73.5511 12.0074C73.5511 10.6767 73.0857 9.50068 72.1241 8.57227C71.1624 7.61292 70.0147 7.14872 68.6807 7.14872ZM86.9212 20.3011C84.6256 20.3011 82.6713 19.4965 81.0582 17.8563C79.4451 16.2471 78.6075 14.2974 78.6075 12.0074C78.6075 9.7173 79.4141 7.76765 81.0582 6.12747C82.6713 4.51824 84.6256 3.68267 86.9212 3.68267C89.2167 3.68267 90.8608 4.14687 91.8225 5.10623V3.86835H95.2348V20.0535H91.8225V18.8157C90.8298 19.8369 89.2167 20.3011 86.9212 20.3011ZM86.9212 7.14872C85.5872 7.14872 84.4395 7.61292 83.4778 8.57227C82.5162 9.53162 82.0508 10.6767 82.0508 12.0074C82.0508 13.3381 82.5162 14.5141 83.4468 15.4734C84.4084 16.4328 85.5562 16.897 86.8901 16.897C88.224 16.897 89.4028 16.4328 90.3645 15.4734C91.3262 14.5141 91.7915 13.369 91.7915 12.0383C91.7915 10.7076 91.3262 9.53162 90.3645 8.60322C89.4028 7.61292 88.2551 7.14872 86.9212 7.14872ZM105.565 4.11593H97.9647V20.3011H101.377V7.52008H105.565V4.11593ZM29.284 8.16996C29.9354 8.81985 30.3697 9.59352 30.6489 10.3981C31.2693 8.2628 33.1306 6.74641 35.4571 6.74641C37.1943 6.74641 38.6213 7.55103 39.7691 9.19121L42.1887 7.30345C40.7928 4.98244 38.4042 3.58983 35.4261 3.58983C32.5412 3.55889 29.9354 5.01339 28.3843 7.24156L29.284 8.16996Z" fill="currentColor"/>
<path d="M6.32831 20.1462L6.26627 20.0843L1.11676 14.9843C0.434296 14.3065 0 13.3534 0 12.3073C0 11.1995 0.496338 10.1844 1.27187 9.47571L6.29729 4.49018C6.54545 4.2426 6.91771 4.2426 7.16588 4.49018L9.64757 6.95045C9.89573 7.19493 9.89573 7.5632 9.64757 7.81077L5.55278 11.871C5.30461 12.1155 5.30461 12.4837 5.55278 12.7313L7.13486 14.3313L8.12753 15.2844L6.32831 20.1462Z" fill="url(#paint2_linear_101_675)"/>
<path d="M7.96622 22.4332L11.4189 23.9434C11.7229 24.0857 12.1044 23.9526 12.2471 23.6215L21.358 2.89951C21.5038 2.56528 21.3363 2.21558 21.0354 2.07323L17.5828 0.563022C17.2477 0.417572 16.8972 0.584685 16.7545 0.88487L7.6436 21.6069C7.4978 21.9411 7.66532 22.2908 7.96622 22.4332Z" fill="url(#paint3_linear_101_675)"/>
<path d="M22.8315 4.39424L27.95 9.53142C28.6325 10.2122 29.0668 11.1716 29.0668 12.2238C29.0668 13.3379 28.5704 14.3591 27.7949 15.0709L22.7695 20.0843C22.5213 20.3319 22.1491 20.3319 21.9009 20.0843L19.4192 17.6085C19.171 17.361 19.171 16.9896 19.4192 16.742L23.576 12.657C23.8242 12.4095 23.8242 12.0381 23.576 11.7905L21.9629 10.1813L20.9393 9.16005L22.7385 4.3014L22.8315 4.39424Z" fill="url(#paint4_linear_101_675)"/>
<defs>
<linearGradient id="paint0_linear_101_675" x1="103.92" y1="9.90167" x2="110.03" y2="28.9238" gradientUnits="userSpaceOnUse">
<stop stop-color="#FAA401"/>
<stop offset="1" stop-color="#F82A92"/>
</linearGradient>
<linearGradient id="paint1_linear_101_675" x1="103.92" y1="9.90167" x2="110.03" y2="28.9238" gradientUnits="userSpaceOnUse">
<stop stop-color="#FAA401"/>
<stop offset="1" stop-color="#F82A92"/>
</linearGradient>
<linearGradient id="paint2_linear_101_675" x1="0" y1="0.509735" x2="22.9672" y2="28.9293" gradientUnits="userSpaceOnUse">
<stop stop-color="#FAA401"/>
<stop offset="1" stop-color="#F82A92"/>
</linearGradient>
<linearGradient id="paint3_linear_101_675" x1="0" y1="0.509735" x2="22.9672" y2="28.9293" gradientUnits="userSpaceOnUse">
<stop stop-color="#FAA401"/>
<stop offset="1" stop-color="#F82A92"/>
</linearGradient>
<linearGradient id="paint4_linear_101_675" x1="0" y1="0.509735" x2="22.9672" y2="28.9293" gradientUnits="userSpaceOnUse">
<stop stop-color="#FAA401"/>
<stop offset="1" stop-color="#F82A92"/>
</linearGradient>
</defs>
</svg>
