<svg width="26" height="26" viewBox="0 0 26 26" fill="none" xmlns="http://www.w3.org/2000/svg">
<path d="M1 13L3.66667 10.3333M3.66667 10.3333L13 1L22.3333 10.3333M3.66667 10.3333V23.6667C3.66667 24.0203 3.80714 24.3594 4.05719 24.6095C4.30724 24.8595 4.64638 25 5 25H9M22.3333 10.3333L25 13M22.3333 10.3333V23.6667C22.3333 24.0203 22.1929 24.3594 21.9428 24.6095C21.6928 24.8595 21.3536 25 21 25H17M9 25C9.35362 25 9.69276 24.8595 9.94281 24.6095C10.1929 24.3594 10.3333 24.0203 10.3333 23.6667V18.3333C10.3333 17.9797 10.4738 17.6406 10.7239 17.3905C10.9739 17.1405 11.313 17 11.6667 17H14.3333C14.687 17 15.0261 17.1405 15.2761 17.3905C15.5262 17.6406 15.6667 17.9797 15.6667 18.3333V23.6667C15.6667 24.0203 15.8071 24.3594 16.0572 24.6095C16.3072 24.8595 16.6464 25 17 25M9 25H17" stroke="#787491" stroke-width="2" stroke-linecap="round" stroke-linejoin="round"/>
</svg>
