<svg width="26" height="26" viewBox="0 0 26 26" fill="none" xmlns="http://www.w3.org/2000/svg">
<path d="M21.4853 4.51467L16.7707 9.22933L21.4853 4.51467ZM16.7707 16.7707L21.4853 21.4853L16.7707 16.7707ZM9.22933 9.22933L4.51467 4.51467L9.22933 9.22933ZM9.22933 16.7707L4.51467 21.4853L9.22933 16.7707ZM25 13C25 14.5759 24.6896 16.1363 24.0866 17.5922C23.4835 19.0481 22.5996 20.371 21.4853 21.4853C20.371 22.5996 19.0481 23.4835 17.5922 24.0866C16.1363 24.6896 14.5759 25 13 25C11.4241 25 9.86371 24.6896 8.4078 24.0866C6.95189 23.4835 5.62902 22.5996 4.51472 21.4853C3.40042 20.371 2.5165 19.0481 1.91345 17.5922C1.31039 16.1363 1 14.5759 1 13C1 9.8174 2.26428 6.76516 4.51472 4.51472C6.76516 2.26428 9.8174 1 13 1C16.1826 1 19.2348 2.26428 21.4853 4.51472C23.7357 6.76516 25 9.8174 25 13ZM18.3333 13C18.3333 14.4145 17.7714 15.771 16.7712 16.7712C15.771 17.7714 14.4145 18.3333 13 18.3333C11.5855 18.3333 10.229 17.7714 9.22876 16.7712C8.22857 15.771 7.66667 14.4145 7.66667 13C7.66667 11.5855 8.22857 10.229 9.22876 9.22876C10.229 8.22857 11.5855 7.66667 13 7.66667C14.4145 7.66667 15.771 8.22857 16.7712 9.22876C17.7714 10.229 18.3333 11.5855 18.3333 13V13Z" stroke="#787491" stroke-width="2" stroke-linecap="round" stroke-linejoin="round"/>
</svg>
