<svg width="32" height="32" viewBox="0 0 32 32" fill="none" >
<path d="M18 22.5H22.5M22.5 22.5H27M22.5 22.5V18M22.5 22.5V27M8 14H11C11.7956 14 12.5587 13.6839 13.1213 13.1213C13.6839 12.5587 14 11.7956 14 11V8C14 7.20435 13.6839 6.44129 13.1213 5.87868C12.5587 5.31607 11.7956 5 11 5H8C7.20435 5 6.44129 5.31607 5.87868 5.87868C5.31607 6.44129 5 7.20435 5 8V11C5 11.7956 5.31607 12.5587 5.87868 13.1213C6.44129 13.6839 7.20435 14 8 14V14ZM8 27H11C11.7956 27 12.5587 26.6839 13.1213 26.1213C13.6839 25.5587 14 24.7957 14 24V21C14 20.2044 13.6839 19.4413 13.1213 18.8787C12.5587 18.3161 11.7956 18 11 18H8C7.20435 18 6.44129 18.3161 5.87868 18.8787C5.31607 19.4413 5 20.2044 5 21V24C5 24.7957 5.31607 25.5587 5.87868 26.1213C6.44129 26.6839 7.20435 27 8 27ZM21 14H24C24.7957 14 25.5587 13.6839 26.1213 13.1213C26.6839 12.5587 27 11.7956 27 11V8C27 7.20435 26.6839 6.44129 26.1213 5.87868C25.5587 5.31607 24.7957 5 24 5H21C20.2044 5 19.4413 5.31607 18.8787 5.87868C18.3161 6.44129 18 7.20435 18 8V11C18 11.7956 18.3161 12.5587 18.8787 13.1213C19.4413 13.6839 20.2044 14 21 14V14Z" stroke="currentColor" strokeWidth="2" strokeLinecap="round" strokeLinejoin="round"/>
</svg>
