<svg width="32" height="32" viewBox="0 0 32 32" fill="none">
<path d="M20 16C20 17.0609 19.5786 18.0783 18.8284 18.8284C18.0783 19.5786 17.0609 20 16 20C14.9391 20 13.9217 19.5786 13.1716 18.8284C12.4214 18.0783 12 17.0609 12 16C12 14.9391 12.4214 13.9217 13.1716 13.1716C13.9217 12.4214 14.9391 12 16 12C17.0609 12 18.0783 12.4214 18.8284 13.1716C19.5786 13.9217 20 14.9391 20 16V16Z" stroke="currentColor" strokeWidth="2" strokeLinecap="round" strokeLinejoin="round"/>
<path d="M3.27734 16C4.97601 10.5907 10.0307 6.66669 16 6.66669C21.9707 6.66669 27.024 10.5907 28.7227 16C27.024 21.4094 21.9707 25.3334 16 25.3334C10.0307 25.3334 4.97601 21.4094 3.27734 16Z" stroke="currentColor" strokeWidth="2" strokeLinecap="round" strokeLinejoin="round"/>
</svg>
